<?xml version="1.0" encoding="utf-8"?>
<!-- Generator: Adobe Illustrator 27.2.0, SVG Export Plug-In . SVG Version: 6.00 Build 0)  -->
<svg version="1.1" id="Layer_1" xmlns="http://www.w3.org/2000/svg" xmlns:xlink="http://www.w3.org/1999/xlink" x="0px" y="0px"
	 viewBox="0 0 864 864" style="enable-background:new 0 0 864 864;" xml:space="preserve">
<style type="text/css">
	.st0{fill-rule:evenodd;clip-rule:evenodd;fill:#B62126;}
	.st1{fill:#576652;}
</style>
<g>
	<path class="st0" d="M704.28,571.61c-4.35-74.78-39.05-158.13-96.86-192.45c-36.6-21.72-82.37-22.47-135.21,11.73
		c-0.91,0.62-1.91,1.05-2.95,1.35c-1.34,1.49-3.14,2.61-5.22,3.22c-5.91,1.66-12.14-1.81-13.79-7.78
		c-15.03-53.51-57.51-77.18-104.97-80.58c-48.1-3.44-101.27,13.57-138.17,42.35c-71.36,55.66-95.79,154.53-82.93,248.34
		c12.92,94.11,63.45,183.69,144.35,219.87c69.77,31.2,146.08,35.89,215.66,17.15c70.07-18.84,133.34-61.35,176.11-124.44
		c14.25-21.01,26.05-43.1,33.83-66.4C701.92,621.04,705.74,596.97,704.28,571.61z M181.08,583.81c0.69,6.11-3.72,11.67-9.83,12.36
		c-6.11,0.69-11.67-3.72-12.36-9.83c-4.64-41.06,8.87-92.16,34.35-135.7c25.86-44.12,64-80.18,106.67-91.1
		c6.01-1.52,12.1,2.09,13.63,8.04c1.52,6.01-2.09,12.1-8.1,13.62c-37.45,9.57-70.25,42.02-92.89,80.75
		C189.61,501.11,176.9,546.96,181.08,583.81z M260.33,758.04c-3.88,4.77-10.93,5.49-15.76,1.6c-14.45-11.79-26.11-24.31-35.55-38.36
		s-16.61-29.61-22.04-47.35c-1.77-5.93,1.53-12.18,7.45-13.95c5.88-1.84,12.18,1.53,13.96,7.4c4.78,15.55,10.97,29.15,19.22,41.44
		c8.21,12.22,18.41,23.18,31.06,33.47C263.5,746.17,264.22,753.22,260.33,758.04z"/>
	<path class="st1" d="M633.96,89.26c-28.88,25.53-53.54,54.67-74.02,87.32c-28.57,45.46-50.13,94.27-65.15,145.65
		c-3.69,12.61-7.09,25.26-10.45,37.98c-5.99,2.93-11.97,6.2-18.02,9.88c-2.39-6.43-5.24-12.53-8.44-18.27
		c5.33-19.47,11.66-38.67,19.11-57.52c8.27-20.77,16.67-41.28,26.57-61.27c8.37-16.9,14.4-34.87,22.07-52.11
		c14.31-31.97,33.53-61.02,53.96-89.24c8.81-12.17,18.05-24.1,27.7-35.68c4.35-5.16,9.92-9.55,15.44-13.54
		c5.91-4.34,12.9-5.42,19.53-1.89c6.84,3.68,8.4,10.56,8.23,17.77C650.18,71.35,643.33,81.03,633.96,89.26z"/>
</g>
</svg>
